<svg xmlns="http://www.w3.org/2000/svg" version="1.1" xmlns:xlink="http://www.w3.org/1999/xlink" xmlns:svgjs="http://svgjs.com/svgjs" height="68.3203125" width="255.76171875"><defs id="SvgjsDefs1006"></defs><g id="SvgjsG1007" rel="mainfill" name="main_text" xmlns:name="main_text" stroke="#fff" stroke-width="2" fill="rgba(0, 0, 0, 0)" transform="translate(-4.30859375,-181.19921875)"><path d="M33.21 229.61L18.96 209.67L18.96 240L5.31 240L5.31 189.20L18.96 189.20L36.70 215.21L54.44 189.20L68.09 189.20L68.09 240L54.44 240L54.44 209.67L40.19 229.61L33.21 229.61ZM127.31 201.33L92.35 201.33L92.35 208.91L119.73 208.91L119.73 221.04L92.35 221.04L92.35 227.87L127.31 227.87L127.31 240L78.71 240L78.71 189.20L127.31 189.20L127.31 201.33ZM176.59 221.80L176.59 189.20L190.24 189.20L190.24 240L176.59 240L149.98 207.40L149.98 240L136.33 240L136.33 189.20L149.98 189.20L176.59 221.80ZM255.07 189.20L255.07 218.85Q255.07 223.55 253.86 227.64Q252.65 231.74 249.69 234.84Q246.73 237.95 241.73 239.73Q236.72 241.52 229.14 241.52L226.41 241.52Q218.83 241.52 213.82 239.73Q208.82 237.95 205.86 234.84Q202.90 231.74 201.69 227.64Q200.48 223.55 200.48 218.85L200.48 189.20L214.13 189.20L214.13 216.87Q214.13 219.38 214.35 221.61Q214.58 223.85 215.83 225.59Q217.08 227.34 219.85 228.36Q222.62 229.38 227.77 229.38Q232.86 229.38 235.66 228.36Q238.47 227.34 239.72 225.59Q240.97 223.85 241.20 221.61Q241.42 219.38 241.42 216.87L241.42 189.20L255.07 189.20Z"></path></g></svg>